<svg width="0" height="0" class="hidden">
  <symbol xmlns="http://www.w3.org/2000/svg" viewBox="0 0 32 32" id="arrow-circle">
    <path d="M16.03 0c-8.837 0-16 7.163-16 16s7.163 16 16 16 16-7.163 16-16-7.164-16-16-16zm7.743 15.195l-6.59 6.59a1.628 1.628 0 01-2.308-.001l-6.59-6.589a1.632 1.632 0 112.31-2.309l5.434 5.435 5.435-5.435a1.632 1.632 0 112.31 2.31z"></path>
  </symbol>
  <symbol xmlns="http://www.w3.org/2000/svg" viewBox="0 0 32 32" id="facebook-circle">
    <path d="M16 0C7.163 0 0 7.163 0 16c0 7.797 5.58 14.284 12.964 15.704V21.682H9.652a.518.518 0 01-.518-.518v-4.175c0-.286.232-.518.518-.518h3.312v-2.882c0-3.798 2.391-6.25 6.09-6.25l3.294.004c.286 0 .518.232.518.518v3.879a.518.518 0 01-.518.517H20.13c-1.529 0-1.809.596-1.809 1.771v2.443h3.873c.286 0 .518.232.518.518v4.175a.518.518 0 01-.517.518h-3.872v10.13C26.055 30.687 32 24.047 32 16c0-8.837-7.163-16-16-16z"></path>
  </symbol>
  <symbol xmlns="http://www.w3.org/2000/svg" viewBox="0 0 32 32" id="location">
    <path d="M16 32c-1.792 0-5.324-.942-8.848-7.243a28.337 28.337 0 01-3.665-12.37C3.557 5.477 9.216-.069 16.127.001c6.812.069 12.317 5.574 12.386 12.386a28.333 28.333 0 01-3.662 12.37C21.322 31.058 17.79 32 15.999 32zm0-25.385a5.773 5.773 0 105.84 5.774A5.813 5.813 0 0016 6.615z"></path>
  </symbol>
  <symbol xmlns="http://www.w3.org/2000/svg" viewBox="0 0 32 32" id="mail-circle">
    <path d="M16 0C7.163 0 0 7.163 0 16s7.163 16 16 16 16-7.163 16-16S24.837 0 16 0zM8.995 9.098h14.01a2.03 2.03 0 012.01 1.767l-8.184 8.183a1.176 1.176 0 01-1.662 0l-8.183-8.183a2.03 2.03 0 012.009-1.767zM25.04 20.867a2.036 2.036 0 01-2.036 2.035H8.995a2.036 2.036 0 01-2.036-2.035V12.97l7.503 7.503c.41.41.957.637 1.538.637a2.16 2.16 0 001.538-.637l7.503-7.503v7.895z"></path>
  </symbol>
  <symbol xmlns="http://www.w3.org/2000/svg" viewBox="0 0 32 32" id="user-circle">
    <path d="M16 0C7.163 0 0 7.163 0 16s7.163 16 16 16 16-7.163 16-16S24.837 0 16 0zm0 24.417c-4.305 0-7.795-2.02-7.795-4.513 0-1.8 1.826-3.35 4.46-4.074-1.21-.978-1.998-2.455-1.998-4.131a5.333 5.333 0 1110.666 0c0 1.676-.789 3.153-1.998 4.13 2.634.725 4.46 2.275 4.46 4.075 0 2.492-3.49 4.513-7.795 4.513z"></path>
  </symbol>
  <symbol xmlns="http://www.w3.org/2000/svg" viewBox="0 0 481.168 481.168" id="phone-circle">
    <path d="M410.639 70.5c-94-94-246.3-94-340.2 0-90.4 90.4-93.8 235-10.1 329.5l2.5 2c-9.1 19.6-24.7 43.8-49.5 56-8.2 4-6.3 16.2 2.7 17.6 27.1 4.2 66-.5 102.3-27.9l.5.4c92.2 54.2 212.8 41.8 292-37.4 93.8-93.9 93.8-246.3-.2-340.2zm-90.8 273c-5.3 5.4-10.9 10.4-15.9 16-7.3 8.2-16.5 10.8-26.9 10.2-15.2-.8-29.3-5.9-42.8-12.5-30.1-14.6-55.8-34.9-77.3-60.5-15.9-18.9-29-39.5-37.7-62.8-4.2-11.3-7.2-22.8-6.3-35 .6-7.5 3.4-13.9 8.9-19.2 6-5.7 11.6-11.6 17.5-17.4 7.7-7.6 17.3-7.5 25 0 4.8 4.7 9.4 9.4 14.1 14.1 4.6 4.6 9.2 9.1 13.7 13.7 8 8.1 8 17.5 0 25.6-5.7 5.8-11.4 11.6-17.3 17.2-1.5 1.5-1.7 2.7-.9 4.6 3.8 9.2 9.4 17.4 15.6 25 12.5 15.4 26.7 29.1 43.7 39.7 3.6 2.3 7.6 3.9 11.4 6 1.9 1.1 3.3.7 4.8-.9 5.7-5.9 11.6-11.7 17.4-17.5 7.7-7.6 17.3-7.6 24.9 0 9.4 9.3 18.7 18.6 28 28 8 8.2 8 17.8.1 25.7zm-88.7-155.4l3-21.4c20.7 2.9 39.5 12.3 54.3 27.1 14.1 14.1 23.3 31.8 26.6 51.3l-21.3 3.7c-2.6-15.1-9.7-28.8-20.6-39.7-11.5-11.5-26-18.8-42-21zm118.7 57c-4.8-28-18-53.4-38.1-73.6-21.2-21.2-48.1-34.6-77.8-38.8l3-21.4c34.3 4.8 65.5 20.3 90 44.9 23.3 23.3 38.6 52.8 44.2 85.2l-21.3 3.7z"></path>
  </symbol>
</svg>